<?xml version="1.0" encoding="UTF-8"?>
<svg width="210.18mm" height="211.54mm" version="1.1" viewBox="0 0 210.18 211.54" xmlns="http://www.w3.org/2000/svg"><g transform="translate(.18078 -42.673)"><rect x="26.376" y="42.736" width="183.56" height="183.56" ry="0" fill="#000000" stroke="#000000" stroke-width=".12584"/><path d="m-0.11786 69.544v184.61h182.62v-27.855h-156.12v-156.75z" fill="#000000" stroke="#000000" stroke-width=".12584"/><g fill="#ffffff"><path d="m79.054 139.75h15.165c0-11.175-9.7106-23.083-23.083-23.083-13.789 0-24.494 9.6006-24.967 22.917 0 14.258 15.839 18.696 22.225 22.383 6.3869 3.6875 10.003 7.7998 10.003 12.428 0 4.6282-5.9963 6.0564-9.9241 6.0564-3.9278 0-9.3738-1.8263-9.3738-10.005l-14.614-0.15791c0 35.049 49.76 26.819 49.76 5.3618 0-21.457-11.207-21.932-22.52-27.207-11.313-5.2748-10.21-18.954-1.8924-18.954 8.318 0 6.9353 6.8393 9.2203 10.259z"/><path d="m103.96 119.69v72.384h41.159v-11.512h-26.493v-20.501h22.236l-0.15791-11.619h-21.92v-16.609h26.809v-12.458z"/><circle cx="103.96" cy="119.69" r=".18877"/></g></g></svg>